<svg width="20" height="20" viewBox="0 0 20 20" fill="none" xmlns="http://www.w3.org/2000/svg">
<g id="vuesax/linear/shapes">
<g id="shapes">
<path id="Vector" d="M11.1913 12.5H3.6663C2.14963 12.5 1.18296 10.875 1.91629 9.54164L3.85796 6.00829L5.67463 2.69995C6.43296 1.32495 8.41629 1.32495 9.17463 2.69995L10.9996 6.00829L11.8746 7.59996L12.9413 9.54164C13.6746 10.875 12.708 12.5 11.1913 12.5Z" stroke="#7F8489" stroke-width="1.5" stroke-linecap="round" stroke-linejoin="round"/>
<path id="Vector_2" d="M18.3333 12.9167C18.3333 15.9083 15.9083 18.3333 12.9167 18.3333C9.925 18.3333 7.5 15.9083 7.5 12.9167C7.5 12.775 7.50833 12.6417 7.51667 12.5H11.1917C12.7083 12.5 13.675 10.875 12.9417 9.54168L11.875 7.6C12.2083 7.53333 12.5583 7.5 12.9167 7.5C15.9083 7.5 18.3333 9.925 18.3333 12.9167Z" stroke="#7F8489" stroke-width="1.5" stroke-linecap="round" stroke-linejoin="round"/>
</g>
</g>
</svg>
