<svg width="20" height="20" viewBox="0 0 20 20" fill="none" xmlns="http://www.w3.org/2000/svg">
<g id="vuesax/linear/layer">
<g id="layer">
<path id="Vector" d="M10.8416 2.43335L15.7583 4.61668C17.1749 5.24168 17.1749 6.27502 15.7583 6.90002L10.8416 9.08335C10.2833 9.33335 9.3666 9.33335 8.80827 9.08335L3.8916 6.90002C2.47493 6.27502 2.47493 5.24168 3.8916 4.61668L8.80827 2.43335C9.3666 2.18335 10.2833 2.18335 10.8416 2.43335Z" stroke="#7F8489" stroke-width="1.5" stroke-linecap="round" stroke-linejoin="round"/>
<path id="Vector_2" d="M2.5 9.16675C2.5 9.86675 3.025 10.6751 3.66667 10.9584L9.325 13.4751C9.75833 13.6667 10.25 13.6667 10.675 13.4751L16.3333 10.9584C16.975 10.6751 17.5 9.86675 17.5 9.16675" stroke="#7F8489" stroke-width="1.5" stroke-linecap="round" stroke-linejoin="round"/>
<path id="Vector_3" d="M2.5 13.3333C2.5 14.1083 2.95833 14.8083 3.66667 15.1249L9.325 17.6416C9.75833 17.8333 10.25 17.8333 10.675 17.6416L16.3333 15.1249C17.0417 14.8083 17.5 14.1083 17.5 13.3333" stroke="#7F8489" stroke-width="1.5" stroke-linecap="round" stroke-linejoin="round"/>
</g>
</g>
</svg>
